<svg width="40" height="40" viewBox="0 0 40 40" fill="none" xmlns="http://www.w3.org/2000/svg">
<g clip-path="url(#clip0_926_4932)">
<path d="M39.7446 9.06678C39.6594 8.52603 39.4119 8.02393 39.0349 7.62705C38.6579 7.23018 38.1691 6.95729 37.6335 6.84455L31.1112 5.41122C30.4118 5.25868 29.6878 5.2581 28.9881 5.40954C28.2884 5.56098 27.6294 5.86089 27.0557 6.289L7.7779 20.3334L2.3779 20.1112C1.94381 20.0957 1.51585 20.2173 1.15482 20.4588C0.79379 20.7004 0.51804 21.0495 0.366735 21.4567C0.215431 21.8639 0.196266 22.3083 0.311962 22.727C0.427658 23.1457 0.672333 23.5173 1.01123 23.789L6.56679 28.1557C7.23346 28.9668 7.6779 28.8112 18.7112 22.8001L19.7446 33.2668C19.7618 33.5523 19.8596 33.8271 20.0268 34.0592C20.194 34.2913 20.4236 34.4711 20.689 34.5779C20.88 34.6533 21.0837 34.6911 21.289 34.689C21.7023 34.6764 22.097 34.5145 22.4001 34.2334L25.0557 31.8112C25.3201 31.5662 25.4992 31.2431 25.5668 30.889L28.0001 17.6668C31.9668 15.4446 35.7223 13.3557 38.4001 11.8334C38.8792 11.564 39.2646 11.1547 39.5049 10.6603C39.7451 10.1659 39.8287 9.60996 39.7446 9.06678ZM37.3001 9.90011C34.5223 11.4779 30.6335 13.689 26.4557 15.9779L26.0001 16.2334L23.4112 30.3112L21.7779 31.8001L20.5557 19.2446L19.0779 20.0001C11.1112 24.4446 8.45568 25.7334 7.54457 26.1334L2.76679 22.3446L8.41124 22.589L28.4112 8.07789C28.7256 7.84286 29.086 7.67684 29.469 7.59068C29.8519 7.50452 30.2487 7.50016 30.6335 7.57789L37.1335 8.97789C37.2336 8.99605 37.3254 9.04572 37.3953 9.11967C37.4653 9.19362 37.5098 9.28798 37.5223 9.389C37.5452 9.48676 37.5359 9.58929 37.4959 9.68137C37.4559 9.77345 37.3872 9.85016 37.3001 9.90011Z" fill="white"/>
</g>
<defs>
<clipPath id="clip0_926_4932">
<rect width="40" height="40" fill="white"/>
</clipPath>
</defs>
</svg>
