<svg width="40" height="40" viewBox="0 0 40 40" fill="none" xmlns="http://www.w3.org/2000/svg">
<path d="M2.5 11.875C2.5 10.3832 3.09263 8.95242 4.14752 7.89752C5.20242 6.84263 6.63316 6.25 8.125 6.25H31.875C33.3668 6.25 34.7976 6.84263 35.8525 7.89752C36.9074 8.95242 37.5 10.3832 37.5 11.875V28.125C37.5 29.6168 36.9074 31.0476 35.8525 32.1025C34.7976 33.1574 33.3668 33.75 31.875 33.75H8.125C6.63316 33.75 5.20242 33.1574 4.14752 32.1025C3.09263 31.0476 2.5 29.6168 2.5 28.125V11.875ZM8.125 8.75C7.2962 8.75 6.50134 9.07924 5.91529 9.66529C5.32924 10.2513 5 11.0462 5 11.875V13.75H35V11.875C35 11.0462 34.6708 10.2513 34.0847 9.66529C33.4987 9.07924 32.7038 8.75 31.875 8.75H8.125ZM5 28.125C5 28.9538 5.32924 29.7487 5.91529 30.3347C6.50134 30.9208 7.2962 31.25 8.125 31.25H31.875C32.7038 31.25 33.4987 30.9208 34.0847 30.3347C34.6708 29.7487 35 28.9538 35 28.125V16.25H5V28.125ZM26.25 23.75H30C30.3315 23.75 30.6495 23.8817 30.8839 24.1161C31.1183 24.3505 31.25 24.6685 31.25 25C31.25 25.3315 31.1183 25.6495 30.8839 25.8839C30.6495 26.1183 30.3315 26.25 30 26.25H26.25C25.9185 26.25 25.6005 26.1183 25.3661 25.8839C25.1317 25.6495 25 25.3315 25 25C25 24.6685 25.1317 24.3505 25.3661 24.1161C25.6005 23.8817 25.9185 23.75 26.25 23.75Z" fill="white"/>
</svg>
