<svg width="40" height="40" viewBox="0 0 40 40" fill="none" xmlns="http://www.w3.org/2000/svg">
<path d="M31.75 25.2125C32.4083 25.4711 32.9782 25.9502 33.3812 26.5838C33.7842 27.2173 34.0004 27.9742 34 28.75V30C34 31.3261 33.5259 32.5979 32.682 33.5355C31.8381 34.4732 30.6935 35 29.5 35H11.5C10.3065 35 9.16193 34.4732 8.31802 33.5355C7.47411 32.5979 7 31.3261 7 30V16.25C6.99963 15.4742 7.21584 14.7173 7.61881 14.0838C8.02179 13.4502 8.5917 12.9711 9.25 12.7125V8.75C9.25 7.75544 9.60558 6.80161 10.2385 6.09835C10.8715 5.39509 11.7299 5 12.625 5H23.875C24.7701 5 25.6286 5.39509 26.2615 6.09835C26.8944 6.80161 27.25 7.75544 27.25 8.75V25H29.5V10.2125C30.1583 10.4711 30.7282 10.9502 31.1312 11.5838C31.5342 12.2173 31.7504 12.9742 31.75 13.75V25.2125ZM25 23.2325V8.75C25 8.41848 24.8815 8.10054 24.6705 7.86612C24.4595 7.6317 24.1734 7.5 23.875 7.5H12.625C12.3266 7.5 12.0405 7.6317 11.8295 7.86612C11.6185 8.10054 11.5 8.41848 11.5 8.75V12.5H13.9435C14.8383 12.5009 15.6962 12.8965 16.3285 13.6L25 23.23V23.2325ZM9.25 16.25V30C9.25 30.663 9.48705 31.2989 9.90901 31.7678C10.331 32.2366 10.9033 32.5 11.5 32.5H29.5C30.0967 32.5 30.669 32.2366 31.091 31.7678C31.5129 31.2989 31.75 30.663 31.75 30V28.75C31.75 28.4185 31.6315 28.1005 31.4205 27.8661C31.2095 27.6317 30.9234 27.5 30.625 27.5H27.0565C26.1617 27.4991 25.3038 27.1035 24.6715 26.4L14.7378 15.3675C14.5273 15.1329 14.2416 15.0007 13.9435 15H10.375C10.0766 15 9.79048 15.1317 9.57951 15.3661C9.36853 15.6005 9.25 15.9185 9.25 16.25Z" fill="white"/>
</svg>
