<svg width="41" height="40" viewBox="0 0 41 40" fill="none" xmlns="http://www.w3.org/2000/svg">
<path d="M18 18.3333H28.8333M12.1667 18.3333H13M12.1667 12.4999H13M12.1667 24.1666H13M28.8333 24.1666H27.1667M18 24.1666H23M28.8333 12.4999H23.8333M18 12.4999H19.6667M35.5 11.6666V10.6166C35.5 8.62825 35.5 7.63325 35.2367 6.83325C34.9975 6.09031 34.5903 5.41253 34.0465 4.85261C33.5028 4.2927 32.8373 3.86573 32.1017 3.60492C31.3217 3.33325 30.3567 3.33325 28.425 3.33325H12.575C10.6433 3.33325 9.67833 3.33325 8.89833 3.60492C8.16297 3.86568 7.4976 4.29242 6.9539 4.85202C6.4102 5.41162 6.0028 6.08901 5.76333 6.83159C5.5 7.63492 5.5 8.62825 5.5 10.6166V24.9999M35.5 18.3333V33.9566C35.5 35.3866 33.8583 36.1466 32.82 35.1966C32.5287 34.9274 32.1466 34.7779 31.75 34.7779C31.3534 34.7779 30.9713 34.9274 30.68 35.1966L29.875 35.9333C29.3647 36.4052 28.6951 36.6673 28 36.6673C27.3049 36.6673 26.6353 36.4052 26.125 35.9333C25.6147 35.4613 24.9451 35.1992 24.25 35.1992C23.5549 35.1992 22.8853 35.4613 22.375 35.9333C21.8647 36.4052 21.1951 36.6673 20.5 36.6673C19.8049 36.6673 19.1353 36.4052 18.625 35.9333C18.1147 35.4613 17.4451 35.1992 16.75 35.1992C16.0549 35.1992 15.3853 35.4613 14.875 35.9333C14.3647 36.4052 13.6951 36.6673 13 36.6673C12.3049 36.6673 11.6353 36.4052 11.125 35.9333L10.32 35.1966C10.0287 34.9274 9.64663 34.7779 9.25 34.7779C8.85337 34.7779 8.47131 34.9274 8.18 35.1966C7.14167 36.1466 5.5 35.3866 5.5 33.9566V31.6666" stroke="white" stroke-width="2" stroke-linecap="round"/>
</svg>
