<svg width="32" height="32" viewBox="0 0 32 32" fill="none" xmlns="http://www.w3.org/2000/svg">
<path fill-rule="evenodd" clip-rule="evenodd" d="M20.0279 4.45729C20.7066 4.34129 21.4652 4.30262 22.1799 4.42396C23.4529 4.63898 24.6324 5.23013 25.5665 6.12129C26.1745 6.13462 26.7732 6.01462 27.3025 5.84396C27.8141 5.67712 28.3053 5.45303 28.7666 5.17596L28.7785 5.16796C28.9706 5.04003 29.2009 4.98243 29.4305 5.00492C29.6601 5.02741 29.8749 5.1286 30.0384 5.29135C30.202 5.4541 30.3042 5.66839 30.3278 5.89789C30.3514 6.1274 30.2949 6.35801 30.1679 6.55062C29.8919 6.97062 29.5065 7.71996 29.0759 8.55996L28.8692 8.96129C28.6226 9.44129 28.3692 9.92662 28.1332 10.3426C27.9852 10.604 27.8265 10.8693 27.6665 11.0986V11.464C27.6829 13.6488 27.264 15.815 26.4342 17.8363C25.6044 19.8575 24.3803 21.6931 22.8335 23.2362C21.2866 24.7792 19.4478 25.9987 17.4246 26.8235C15.4013 27.6483 13.234 28.0618 11.0492 28.04C7.88314 28.0428 4.78369 27.1307 2.12388 25.4133C1.93377 25.2903 1.79101 25.1065 1.71897 24.8918C1.64692 24.6772 1.64985 24.4444 1.72728 24.2317C1.8047 24.0189 1.95204 23.8387 2.14519 23.7206C2.33834 23.6024 2.56587 23.5533 2.79055 23.5813C4.62771 23.8009 6.48972 23.5045 8.16788 22.7253C7.34913 22.3531 6.61686 21.8144 6.01771 21.1437C5.41856 20.4729 4.96567 19.6847 4.68788 18.8293C4.63495 18.6655 4.62518 18.4909 4.65952 18.3222C4.69386 18.1536 4.77114 17.9967 4.88388 17.8666L4.89722 17.8533C4.2204 17.2503 3.67797 16.5117 3.30515 15.6854C2.93234 14.8592 2.73748 13.9637 2.73322 13.0573V12.988C2.73312 12.7684 2.80526 12.555 2.93852 12.3805C3.07177 12.206 3.25873 12.0803 3.47055 12.0226C3.01905 11.1217 2.7848 10.1276 2.78655 9.11996C2.78579 7.97752 3.08462 6.85485 3.65322 5.86396C3.734 5.72329 3.84779 5.60439 3.98477 5.51751C4.12175 5.43063 4.2778 5.37837 4.43948 5.36525C4.60116 5.35213 4.7636 5.37853 4.9128 5.44218C5.062 5.50584 5.19347 5.60483 5.29588 5.73062C7.62814 8.60387 10.9695 10.4782 14.6372 10.9706C14.6054 9.77087 14.908 8.58592 15.5113 7.5484C16.1146 6.51088 16.9948 5.66172 18.0532 5.09596C18.5892 4.81062 19.2986 4.58262 20.0292 4.45729H20.0279ZM4.99055 14.5213C5.24947 15.25 5.69313 15.899 6.27813 16.4047C6.86313 16.9105 7.56942 17.2557 8.32788 17.4066C8.5464 17.4502 8.74412 17.5654 8.88967 17.7341C9.03521 17.9028 9.12025 18.1153 9.13128 18.3379C9.1423 18.5604 9.07869 18.7802 8.95054 18.9625C8.82238 19.1448 8.63703 19.279 8.42388 19.344C8.06122 19.4546 7.68922 19.5306 7.31188 19.5746C7.72155 20.1031 8.24436 20.533 8.84195 20.833C9.43953 21.1329 10.0967 21.2952 10.7652 21.308C10.9714 21.3118 11.1714 21.3794 11.3377 21.5014C11.504 21.6233 11.6286 21.7937 11.6943 21.9892C11.76 22.1847 11.7636 22.3957 11.7047 22.5934C11.6458 22.791 11.5272 22.9657 11.3652 23.0933C9.97488 24.1872 8.35918 24.9591 6.63455 25.3533C8.06237 25.8103 9.5527 26.042 11.0519 26.04H11.0639C12.9839 26.0602 14.8887 25.6976 16.667 24.9734C18.4453 24.2491 20.0614 23.1777 21.4209 21.8218C22.7805 20.4659 23.8561 18.8526 24.5851 17.0762C25.3141 15.2999 25.6817 13.396 25.6665 11.476V10.7626C25.6663 10.5198 25.7545 10.2852 25.9146 10.1026C26.0079 9.99729 26.1679 9.75462 26.3946 9.35596C26.6079 8.97996 26.8452 8.52662 27.0919 8.04796L27.1359 7.95996C26.4394 8.11669 25.7222 8.16036 25.0119 8.08929C24.7717 8.06312 24.5491 7.95087 24.3852 7.77329C23.7147 7.0462 22.8218 6.56223 21.8466 6.39729C21.3547 6.32771 20.8548 6.33897 20.3666 6.43062C19.8907 6.5047 19.4286 6.64988 18.9959 6.86129C18.1234 7.32743 17.4304 8.06998 17.0255 8.97248C16.6206 9.87497 16.5267 10.8863 16.7586 11.848C16.795 11.9992 16.7958 12.1568 16.7606 12.3083C16.7255 12.4599 16.6555 12.6011 16.5563 12.7209C16.457 12.8406 16.3311 12.9355 16.1887 12.9981C16.0463 13.0607 15.8912 13.0892 15.7359 13.0813C11.6393 12.8741 7.76636 11.1503 4.87055 8.24529C4.81429 8.53389 4.78616 8.82726 4.78655 9.12129V9.12396C4.78505 9.85828 4.96517 10.5816 5.31085 11.2295C5.65654 11.8773 6.15707 12.4297 6.76788 12.8373C6.94725 12.958 7.08266 13.1336 7.15382 13.3378C7.22497 13.542 7.22804 13.7637 7.16256 13.9697C7.09707 14.1758 6.96657 14.3551 6.79061 14.4807C6.61465 14.6064 6.40271 14.6716 6.18655 14.6666C5.78416 14.6555 5.38372 14.6077 4.99055 14.5213Z" fill="#161616"/>
</svg>
