<svg width="32" height="32" viewBox="0 0 32 32" fill="none" xmlns="http://www.w3.org/2000/svg">
<path fill-rule="evenodd" clip-rule="evenodd" d="M31.2068 22.4866C30.4815 21.0259 29.5257 19.6915 28.3762 18.5346C27.9917 18.1001 27.5891 17.682 27.1695 17.2813L27.1188 17.232C26.963 17.0807 26.8092 16.9273 26.6575 16.772C28.2289 14.5868 29.5737 12.2471 30.6708 9.78932L30.7148 9.69065L30.7455 9.58665C30.8908 9.10265 31.0562 8.18265 30.4695 7.35065C29.8615 6.49198 28.8895 6.33732 28.2375 6.33732H25.2415C24.6142 6.30873 23.9939 6.47931 23.4694 6.82466C22.9449 7.17001 22.5431 7.67241 22.3215 8.25998C21.6767 9.7955 20.8695 11.2576 19.9135 12.6213V9.11065C19.9135 8.65732 19.8708 7.89732 19.3842 7.25732C18.8028 6.48932 17.9615 6.33732 17.3775 6.33732H12.6228C12.0024 6.32304 11.4002 6.54793 10.9411 6.96541C10.4819 7.3829 10.2008 7.96099 10.1562 8.57998L10.1522 8.63998V8.69998C10.1522 9.34665 10.4082 9.82398 10.6135 10.124C10.7055 10.2586 10.8028 10.3813 10.8655 10.4586L10.8788 10.476C10.9455 10.5586 10.9895 10.6133 11.0335 10.6746C11.1508 10.832 11.3175 11.0773 11.3655 11.7093V13.6733C10.4111 12.0751 9.62848 10.3803 9.03083 8.61732L9.02016 8.58798L9.0095 8.55998C8.84683 8.13465 8.58683 7.51598 8.0655 7.04398C7.4575 6.49065 6.7375 6.33732 6.08283 6.33732H3.04283C2.38016 6.33732 1.5815 6.49198 0.985496 7.11998C0.400163 7.73865 0.333496 8.47998 0.333496 8.87198V9.05065L0.370829 9.22398C1.21256 13.1317 2.94714 16.7916 5.43883 19.9173C6.578 21.7137 8.12454 23.2163 9.95303 24.3033C11.7815 25.3902 13.8404 26.0309 15.9628 26.1733L16.0175 26.1773H16.0735C17.0415 26.1773 18.0508 26.0933 18.8095 25.588C19.8322 24.9053 19.9135 23.8587 19.9135 23.336V21.8186C20.1762 22.032 20.5015 22.3173 20.9002 22.7013C21.3828 23.184 21.7668 23.6026 22.0962 23.968L22.2722 24.1626C22.5282 24.448 22.7802 24.7293 23.0095 24.96C23.2975 25.2493 23.6535 25.568 24.0988 25.804C24.5828 26.0587 25.0908 26.1747 25.6295 26.1747H28.6708C29.3122 26.1747 30.2308 26.0226 30.8775 25.2733C31.5815 24.4573 31.5282 23.456 31.3068 22.7373L31.2668 22.608L31.2068 22.4866ZM23.5802 22.628C23.1669 22.166 22.7414 21.7152 22.3042 21.276L22.3002 21.272C20.4908 19.528 19.6468 19.2253 19.0495 19.2253C18.7308 19.2253 18.3802 19.26 18.1522 19.5453C18.0495 19.6814 17.9822 19.8408 17.9562 20.0093C17.924 20.2049 17.9097 20.4031 17.9135 20.6013V23.336C17.9135 23.676 17.8575 23.8186 17.7002 23.9226C17.4908 24.0626 17.0442 24.176 16.0855 24.176C14.2644 24.0521 12.4988 23.4977 10.9337 22.5585C9.36866 21.6193 8.04886 20.322 7.08283 18.7733L7.07216 18.756L7.05883 18.74C4.73765 15.8509 3.11995 12.4616 2.3335 8.83998C2.33883 8.66665 2.37616 8.56132 2.4375 8.49732C2.50016 8.43065 2.6535 8.33732 3.04283 8.33732H6.08283C6.42016 8.33732 6.59616 8.41198 6.72283 8.52532C6.86416 8.65598 6.9895 8.87598 7.13883 9.26798C7.8855 11.4626 8.8935 13.516 9.8495 15.024C10.3268 15.7786 10.7962 16.4066 11.2202 16.8506C11.4322 17.072 11.6388 17.256 11.8375 17.3866C12.0282 17.512 12.2455 17.612 12.4695 17.612C12.5868 17.612 12.7242 17.5986 12.8562 17.5413C12.9987 17.4783 13.1161 17.3694 13.1895 17.232C13.3268 16.9813 13.3655 16.612 13.3655 16.128V11.6306C13.2948 10.54 12.9655 9.92532 12.6455 9.48932C12.5807 9.40211 12.514 9.31631 12.4455 9.23198L12.4282 9.21065C12.3713 9.14159 12.317 9.07043 12.2655 8.99732C12.1999 8.91578 12.1604 8.81633 12.1522 8.71198C12.1626 8.60603 12.2132 8.50808 12.2935 8.43819C12.3738 8.36829 12.4778 8.33173 12.5842 8.33598H17.3775C17.6522 8.33598 17.7442 8.40265 17.7908 8.46532C17.8575 8.55198 17.9135 8.73198 17.9135 9.11065V15.148C17.9135 15.8653 18.2442 16.3506 18.7242 16.3506C19.2762 16.3506 19.6748 16.016 20.3708 15.32L20.3828 15.3066L20.3935 15.2946C21.9548 13.391 23.2304 11.2701 24.1802 8.99865L24.1855 8.98265C24.2569 8.78196 24.3919 8.61013 24.5701 8.49338C24.7482 8.37662 24.9597 8.32134 25.1722 8.33598H28.2388C28.6548 8.33598 28.7908 8.44265 28.8362 8.50532C28.8828 8.57198 28.9162 8.71465 28.8362 8.99465C27.7409 11.4431 26.387 13.7675 24.7975 15.928L24.7868 15.944C24.6335 16.18 24.4642 16.4413 24.4402 16.74C24.4135 17.0626 24.5522 17.3546 24.7962 17.6693C24.9735 17.9306 25.3402 18.2893 25.7122 18.6533L25.7468 18.688C26.1362 19.0693 26.5588 19.4826 26.8975 19.8826L26.9068 19.892L26.9162 19.9026C27.926 20.91 28.7658 22.0744 29.4028 23.3507C29.5042 23.6973 29.4428 23.876 29.3628 23.968C29.2708 24.0746 29.0642 24.1747 28.6722 24.1747H25.6295C25.4221 24.1797 25.2169 24.1315 25.0335 24.0346C24.8087 23.9039 24.6047 23.7403 24.4282 23.5493C24.2375 23.3587 24.0308 23.128 23.7775 22.8466L23.5815 22.628H23.5802Z" fill="#161616"/>
</svg>
