<svg width="32" height="32" viewBox="0 0 32 32" fill="none" xmlns="http://www.w3.org/2000/svg">
<path d="M16.0013 12C14.9404 12 13.923 12.4214 13.1729 13.1715C12.4227 13.9217 12.0013 14.9391 12.0013 16C12.0013 17.0608 12.4227 18.0782 13.1729 18.8284C13.923 19.5785 14.9404 20 16.0013 20C17.0622 20 18.0796 19.5785 18.8297 18.8284C19.5799 18.0782 20.0013 17.0608 20.0013 16C20.0013 14.9391 19.5799 13.9217 18.8297 13.1715C18.0796 12.4214 17.0622 12 16.0013 12ZM16.0013 9.33329C17.7694 9.33329 19.4651 10.0357 20.7153 11.2859C21.9656 12.5362 22.668 14.2318 22.668 16C22.668 17.7681 21.9656 19.4638 20.7153 20.714C19.4651 21.9642 17.7694 22.6666 16.0013 22.6666C14.2332 22.6666 12.5375 21.9642 11.2873 20.714C10.037 19.4638 9.33463 17.7681 9.33463 16C9.33463 14.2318 10.037 12.5362 11.2873 11.2859C12.5375 10.0357 14.2332 9.33329 16.0013 9.33329ZM24.668 8.99996C24.668 9.44199 24.4924 9.86591 24.1798 10.1785C23.8673 10.491 23.4433 10.6666 23.0013 10.6666C22.5593 10.6666 22.1354 10.491 21.8228 10.1785C21.5102 9.86591 21.3346 9.44199 21.3346 8.99996C21.3346 8.55793 21.5102 8.13401 21.8228 7.82145C22.1354 7.50889 22.5593 7.33329 23.0013 7.33329C23.4433 7.33329 23.8673 7.50889 24.1798 7.82145C24.4924 8.13401 24.668 8.55793 24.668 8.99996ZM16.0013 5.33329C12.7026 5.33329 12.164 5.34263 10.6293 5.41063C9.58397 5.45996 8.88263 5.59996 8.23197 5.85329C7.68746 6.05321 7.19519 6.37364 6.79197 6.79063C6.37464 7.19382 6.05377 7.68607 5.8533 8.23063C5.59997 8.88396 5.45997 9.58396 5.41197 10.628C5.34264 12.1 5.3333 12.6146 5.3333 16C5.3333 19.3 5.34264 19.8373 5.41064 21.372C5.45997 22.416 5.59997 23.1186 5.85197 23.768C6.07864 24.348 6.3453 24.7653 6.78797 25.208C7.2373 25.656 7.65464 25.924 8.22797 26.1453C8.88664 26.4 9.58797 26.5413 10.628 26.5893C12.1 26.6586 12.6146 26.6666 16 26.6666C19.3 26.6666 19.8373 26.6573 21.372 26.5893C22.4146 26.54 23.116 26.4 23.768 26.148C24.312 25.9471 24.8041 25.6268 25.208 25.2106C25.6573 24.7626 25.9253 24.3453 26.1466 23.7706C26.4 23.1146 26.5413 22.4133 26.5893 21.3706C26.6586 19.9 26.6666 19.384 26.6666 16C26.6666 12.7013 26.6573 12.1626 26.5893 10.628C26.54 9.58529 26.3986 8.88129 26.1466 8.23063C25.9457 7.68665 25.6254 7.1946 25.2093 6.79063C24.8063 6.37309 24.314 6.05218 23.7693 5.85196C23.116 5.59863 22.4146 5.45863 21.372 5.41063C19.9013 5.34129 19.388 5.33329 16.0013 5.33329ZM16.0013 2.66663C19.624 2.66663 20.076 2.67996 21.4986 2.74663C22.9173 2.81329 23.8853 3.03596 24.7346 3.36663C25.6146 3.70529 26.356 4.16396 27.0973 4.90396C27.7753 5.57049 28.2999 6.37674 28.6346 7.26663C28.964 8.11596 29.188 9.08396 29.2546 10.504C29.3173 11.9253 29.3346 12.3773 29.3346 16C29.3346 19.6226 29.3213 20.0746 29.2546 21.496C29.188 22.916 28.964 23.8826 28.6346 24.7333C28.3008 25.6236 27.7761 26.4301 27.0973 27.096C26.4306 27.7737 25.6244 28.2983 24.7346 28.6333C23.8853 28.9626 22.9173 29.1866 21.4986 29.2533C20.076 29.316 19.624 29.3333 16.0013 29.3333C12.3786 29.3333 11.9266 29.32 10.504 29.2533C9.0853 29.1866 8.11864 28.9626 7.26797 28.6333C6.37774 28.2993 5.57134 27.7746 4.9053 27.096C4.22721 26.4295 3.70258 25.6232 3.36797 24.7333C3.0373 23.884 2.81464 22.916 2.74797 21.496C2.68397 20.0746 2.66797 19.6226 2.66797 16C2.66797 12.3773 2.6813 11.9253 2.74797 10.504C2.81464 9.08263 3.0373 8.11729 3.36797 7.26663C3.70162 6.3762 4.22637 5.56972 4.9053 4.90396C5.57153 4.2256 6.37787 3.70093 7.26797 3.36663C8.1173 3.03596 9.08397 2.81329 10.504 2.74663C11.9266 2.68396 12.3786 2.66663 16.0013 2.66663Z" fill="#161616"/>
</svg>
