<svg width="50" height="50" viewBox="0 0 50 50" fill="none" xmlns="http://www.w3.org/2000/svg">
<path d="M45.8333 22.7084V8.54169C45.8333 5.41669 44.5 4.16669 41.1875 4.16669H32.7708C29.4583 4.16669 28.125 5.41669 28.125 8.54169V22.7084C28.125 25.8334 29.4583 27.0834 32.7708 27.0834H41.1875C44.5 27.0834 45.8333 25.8334 45.8333 22.7084Z" stroke="#F0F0F0" stroke-width="2" stroke-linecap="round" stroke-linejoin="round"/>
<path d="M45.8333 41.4583V37.7083C45.8333 34.5833 44.5 33.3333 41.1875 33.3333H32.7708C29.4583 33.3333 28.125 34.5833 28.125 37.7083V41.4583C28.125 44.5833 29.4583 45.8333 32.7708 45.8333H41.1875C44.5 45.8333 45.8333 44.5833 45.8333 41.4583Z" stroke="#F0F0F0" stroke-width="2" stroke-linecap="round" stroke-linejoin="round"/>
<path d="M21.8748 27.2917V41.4584C21.8748 44.5834 20.5415 45.8334 17.229 45.8334H8.81234C5.49984 45.8334 4.1665 44.5834 4.1665 41.4584V27.2917C4.1665 24.1667 5.49984 22.9167 8.81234 22.9167H17.229C20.5415 22.9167 21.8748 24.1667 21.8748 27.2917Z" stroke="#F0F0F0" stroke-width="2" stroke-linecap="round" stroke-linejoin="round"/>
<path d="M21.8748 8.54169V12.2917C21.8748 15.4167 20.5415 16.6667 17.229 16.6667H8.81234C5.49984 16.6667 4.1665 15.4167 4.1665 12.2917V8.54169C4.1665 5.41669 5.49984 4.16669 8.81234 4.16669H17.229C20.5415 4.16669 21.8748 5.41669 21.8748 8.54169Z" stroke="#F0F0F0" stroke-width="2" stroke-linecap="round" stroke-linejoin="round"/>
</svg>
