<svg width="50" height="50" viewBox="0 0 50 50" fill="none" xmlns="http://www.w3.org/2000/svg">
<path d="M39.3955 30.6094C39.3955 33.2969 41.6038 35.4844 44.2913 35.4844C44.2913 43.2969 42.333 45.2552 34.5205 45.2552H14.9788C7.16634 45.2552 5.20801 43.2969 5.20801 35.4844V34.526C7.89551 34.526 10.1038 32.3177 10.1038 29.6302C10.1038 26.9427 7.89551 24.7344 5.20801 24.7344V23.776C5.22884 15.9635 7.16634 14.0052 14.9788 14.0052H34.4997C42.3122 14.0052 44.2705 15.9635 44.2705 23.776V25.7344C41.583 25.7344 39.3955 27.901 39.3955 30.6094Z" stroke="#161616" stroke-width="2" stroke-linecap="round" stroke-linejoin="round"/>
<path d="M33.7734 14.0052H14.8359L20.9401 7.90106C25.9193 2.9219 28.4193 2.9219 33.3984 7.90106L34.6484 9.15106C33.3359 10.4636 33.0234 12.4011 33.7734 14.0052Z" stroke="#161616" stroke-width="2" stroke-linecap="round" stroke-linejoin="round"/>
<path d="M20.5811 14.0056L20.5811 45.2556" stroke="#161616" stroke-width="2" stroke-linecap="round" stroke-linejoin="round" stroke-dasharray="5 5"/>
</svg>
